# xmcd CD database file
#
# Track frame offsets:
#	150
#	19698
#	36406
#	53907
#	77102
#	92863
#	108014
#	130142
#	149249
#	168228
#	182553
#	190564
#	210949
#	227521
#	242024
#	261691
#	278581
#	298391
#	317891
#	346071
#
# Disc length: 4974 seconds
#
# Revision: 0
# Processed by: cddbd v1.5.2PL0 Copyright (c) Steve Scherf et al.
# Submitted via: CDex 1.51
#
DISCID=23136c14
DTITLE=Erroll Garner - The Classic Album Collection, disc 2
DYEAR=1900
DGENRE=Jazz
TTITLE0=I'll Remember April
TTITLE1=Teach Me Tonight
TTITLE2=Mambo Carmel
TTITLE3=Autumn Leaves
TTITLE4=It's Alright With Me
TTITLE5=Red Top
TTITLE6=April In Paris
TTITLE7=They Can't Take That Away From Me
TTITLE8=How Could You Do A Thing Like That To Me
TTITLE9=Where Or When
TTITLE10=Erroll's Theme
TTITLE11=Girl Of My Dreams
TTITLE12=But Not For Me
TTITLE13=Passing Through
TTITLE14=Time On My Hands
TTITLE15=Alexander's Ragtime Band
TTITLE16=Full Moon and Empty Arms
TTITLE17=Mambo
TTITLE18=The Way Back Blues
TTITLE19=Ol' Man River
EXTD=
EXTT0=
EXTT1=
EXTT2=
EXTT3=
EXTT4=
EXTT5=
EXTT6=
EXTT7=
EXTT8=
EXTT9=
EXTT10=
EXTT11=
EXTT12=
EXTT13=
EXTT14=
EXTT15=
EXTT16=
EXTT17=
EXTT18=
EXTT19=
PLAYORDER=
